<?xml version="1.0" encoding="UTF-8" standalone="no"?>
<svg
   xmlns:dc="http://purl.org/dc/elements/1.1/"
   xmlns:cc="http://creativecommons.org/ns#"
   xmlns:rdf="http://www.w3.org/1999/02/22-rdf-syntax-ns#"
   xmlns:svg="http://www.w3.org/2000/svg"
   xmlns="http://www.w3.org/2000/svg"
   xmlns:sodipodi="http://sodipodi.sourceforge.net/DTD/sodipodi-0.dtd"
   xmlns:inkscape="http://www.inkscape.org/namespaces/inkscape"
   width="512"
   height="512"
   viewBox="0 0 135.46667 135.46667"
   version="1.1"
   id="svg8"
   inkscape:export-filename="/home/dmpop/favicon.png"
   inkscape:export-xdpi="96.000008"
   inkscape:export-ydpi="96.000008"
   inkscape:version="1.0.1 (3bc2e813f5, 2020-09-07)"
   sodipodi:docname="favicon.svg">
  <defs
     id="defs2">
    <inkscape:perspective
       sodipodi:type="inkscape:persp3d"
       inkscape:vp_x="0 : 35.60699 : 1"
       inkscape:vp_y="0 : 1000.0001 : 0"
       inkscape:vp_z="103.56549 : -78.541824 : 1"
       inkscape:persp3d-origin="65.011904 : 13.936354 : 1"
       id="perspective9439" />
    <symbol
       id="Coffeeshop_Inv">
      <title
         id="title1729">Coffeeshop</title>
      <rect
         x="0.13229166"
         y="0.13229166"
         width="18.785418"
         height="18.785418"
         ry="1.5875"
         style="stroke:#ffffff;stroke-width:0.264583"
         id="rect1731" />
      <g
         style="fill:#ffffff;fill-rule:evenodd;stroke:none"
         id="g1737">
        <path
           style="stroke-width:0.264583"
           inkscape:connector-curvature="0"
           d="m 5.2916667,11.90625 a 1.3229167,1.3229167 0 0 0 1.3229166,1.322917 h 5.8208337 a 1.3229167,1.3229167 0 0 0 1.322916,-1.322917 v -0.264583 h 0.264584 a 2.6458335,2.6458335 0 0 0 0,-5.291667 H 5.2916667 Z M 13.758333,7.4083333 v 3.1749997 h 0.264584 a 1.5875,1.5875 0 0 0 0,-3.1749997 z"
           id="path1733" />
        <path
           style="stroke-width:0.264583"
           inkscape:connector-curvature="0"
           d="m 2.1166667,13.758333 a 1.5875,1.5875 0 0 0 1.5875,1.5875 H 15.345833 a 1.5875,1.5875 0 0 0 1.5875,-1.5875 z"
           id="path1735" />
      </g>
    </symbol>
    <symbol
       id="Coffeeshop">
      <title
         id="title1720">Coffeeshop</title>
      <g
         style="fill-rule:evenodd;stroke:none"
         id="g1726">
        <path
           style="stroke-width:0.264583"
           inkscape:connector-curvature="0"
           d="m 5.2916667,11.90625 a 1.3229167,1.3229167 0 0 0 1.3229166,1.322917 h 5.8208337 a 1.3229167,1.3229167 0 0 0 1.322916,-1.322917 v -0.264583 h 0.264584 a 2.6458335,2.6458335 0 0 0 0,-5.291667 H 5.2916667 Z M 13.758333,7.4083333 v 3.1749997 h 0.264584 a 1.5875,1.5875 0 0 0 0,-3.1749997 z"
           id="path1722" />
        <path
           style="stroke-width:0.264583"
           inkscape:connector-curvature="0"
           d="m 2.1166667,13.758333 a 1.5875,1.5875 0 0 0 1.5875,1.5875 H 15.345833 a 1.5875,1.5875 0 0 0 1.5875,-1.5875 z"
           id="path1724" />
      </g>
    </symbol>
  </defs>
  <sodipodi:namedview
     id="base"
     pagecolor="#ffffff"
     bordercolor="#666666"
     borderopacity="1.0"
     inkscape:pageopacity="0.0"
     inkscape:pageshadow="2"
     inkscape:zoom="0.35"
     inkscape:cx="-736.78199"
     inkscape:cy="68.209528"
     inkscape:document-units="mm"
     inkscape:current-layer="layer1"
     showgrid="false"
     fit-margin-top="0"
     fit-margin-left="0"
     fit-margin-right="0"
     fit-margin-bottom="0"
     inkscape:window-width="1920"
     inkscape:window-height="1020"
     inkscape:window-x="1920"
     inkscape:window-y="0"
     inkscape:window-maximized="1"
     inkscape:document-rotation="0"
     units="px" />
  <metadata
     id="metadata5">
    <rdf:RDF>
      <cc:Work
         rdf:about="">
        <dc:format>image/svg+xml</dc:format>
        <dc:type
           rdf:resource="http://purl.org/dc/dcmitype/StillImage" />
        <dc:title />
      </cc:Work>
    </rdf:RDF>
  </metadata>
  <g
     inkscape:label="Layer 1"
     inkscape:groupmode="layer"
     id="layer1"
     transform="translate(825.44936,-34.852689)">
    <g
       id="g884"
       transform="matrix(1.0875177,0,0,1.0875177,367.85433,0.21057469)">
      <path
         id="path868"
         style="fill:#ffe47e;fill-opacity:1;stroke:#dd6c28;stroke-width:5.02708;stroke-miterlimit:4;stroke-dasharray:none;stroke-opacity:1"
         d="m -976.68115,95.95059 c 0,32.20328 -27.72655,50.37364 -59.92985,50.37365 -32.2033,-1e-5 -56.6886,-18.17037 -56.6886,-50.37365 0,-32.203289 16.8907,-54.001199 49.094,-54.001209 32.2033,10e-6 67.52445,21.79792 67.52445,54.001209 z"
         sodipodi:nodetypes="sssss" />
      <path
         id="path879"
         style="fill:#dd6c28;fill-opacity:1;stroke:none;stroke-width:5.01862;stroke-miterlimit:4;stroke-dasharray:none;stroke-opacity:1"
         d="m -976.68115,99.125592 c 0,25.705348 -26.38875,46.543648 -58.94125,46.543658 -32.5524,-1e-5 -58.9413,-20.83831 -58.9413,-46.543658 0,-25.705334 19.2567,13.370038 67.342,-3.7434 31.54275,-11.226 50.54055,-21.961934 50.54055,3.7434 z"
         sodipodi:nodetypes="sssss" />
    </g>
  </g>
</svg>
