<?xml version="1.0" encoding="UTF-8" standalone="no"?>
<svg
   xmlns:dc="http://purl.org/dc/elements/1.1/"
   xmlns:cc="http://creativecommons.org/ns#"
   xmlns:rdf="http://www.w3.org/1999/02/22-rdf-syntax-ns#"
   xmlns:svg="http://www.w3.org/2000/svg"
   xmlns="http://www.w3.org/2000/svg"
   xmlns:sodipodi="http://sodipodi.sourceforge.net/DTD/sodipodi-0.dtd"
   xmlns:inkscape="http://www.inkscape.org/namespaces/inkscape"
   width="512"
   height="512"
   viewBox="0 0 135.46667 135.46667"
   version="1.1"
   id="svg8"
   inkscape:export-filename="/home/dmpop/favicon.png"
   inkscape:export-xdpi="96.000008"
   inkscape:export-ydpi="96.000008"
   inkscape:version="1.0.1 (3bc2e813f5, 2020-09-07)"
   sodipodi:docname="favicon.svg">
  <defs
     id="defs2">
    <inkscape:perspective
       sodipodi:type="inkscape:persp3d"
       inkscape:vp_x="0 : 35.60699 : 1"
       inkscape:vp_y="0 : 1000.0001 : 0"
       inkscape:vp_z="103.56549 : -78.541824 : 1"
       inkscape:persp3d-origin="65.011904 : 13.936354 : 1"
       id="perspective9439" />
    <symbol
       id="Coffeeshop_Inv">
      <title
         id="title1729">Coffeeshop</title>
      <rect
         x="0.13229166"
         y="0.13229166"
         width="18.785418"
         height="18.785418"
         ry="1.5875"
         style="stroke:#ffffff;stroke-width:0.264583"
         id="rect1731" />
      <g
         style="fill:#ffffff;fill-rule:evenodd;stroke:none"
         id="g1737">
        <path
           style="stroke-width:0.264583"
           inkscape:connector-curvature="0"
           d="m 5.2916667,11.90625 a 1.3229167,1.3229167 0 0 0 1.3229166,1.322917 h 5.8208337 a 1.3229167,1.3229167 0 0 0 1.322916,-1.322917 v -0.264583 h 0.264584 a 2.6458335,2.6458335 0 0 0 0,-5.291667 H 5.2916667 Z M 13.758333,7.4083333 v 3.1749997 h 0.264584 a 1.5875,1.5875 0 0 0 0,-3.1749997 z"
           id="path1733" />
        <path
           style="stroke-width:0.264583"
           inkscape:connector-curvature="0"
           d="m 2.1166667,13.758333 a 1.5875,1.5875 0 0 0 1.5875,1.5875 H 15.345833 a 1.5875,1.5875 0 0 0 1.5875,-1.5875 z"
           id="path1735" />
      </g>
    </symbol>
    <symbol
       id="Coffeeshop">
      <title
         id="title1720">Coffeeshop</title>
      <g
         style="fill-rule:evenodd;stroke:none"
         id="g1726">
        <path
           style="stroke-width:0.264583"
           inkscape:connector-curvature="0"
           d="m 5.2916667,11.90625 a 1.3229167,1.3229167 0 0 0 1.3229166,1.322917 h 5.8208337 a 1.3229167,1.3229167 0 0 0 1.322916,-1.322917 v -0.264583 h 0.264584 a 2.6458335,2.6458335 0 0 0 0,-5.291667 H 5.2916667 Z M 13.758333,7.4083333 v 3.1749997 h 0.264584 a 1.5875,1.5875 0 0 0 0,-3.1749997 z"
           id="path1722" />
        <path
           style="stroke-width:0.264583"
           inkscape:connector-curvature="0"
           d="m 2.1166667,13.758333 a 1.5875,1.5875 0 0 0 1.5875,1.5875 H 15.345833 a 1.5875,1.5875 0 0 0 1.5875,-1.5875 z"
           id="path1724" />
      </g>
    </symbol>
  </defs>
  <sodipodi:namedview
     id="base"
     pagecolor="#ffffff"
     bordercolor="#666666"
     borderopacity="1.0"
     inkscape:pageopacity="0.0"
     inkscape:pageshadow="2"
     inkscape:zoom="0.35"
     inkscape:cx="-736.78199"
     inkscape:cy="68.209528"
     inkscape:document-units="mm"
     inkscape:current-layer="layer1"
     showgrid="false"
     fit-margin-top="0"
     fit-margin-left="0"
     fit-margin-right="0"
     fit-margin-bottom="0"
     inkscape:window-width="1920"
     inkscape:window-height="1020"
     inkscape:window-x="1920"
     inkscape:window-y="0"
     inkscape:window-maximized="1"
     inkscape:document-rotation="0"
     units="px" />
  <metadata
     id="metadata5">
    <rdf:RDF>
      <cc:Work
         rdf:about="">
        <dc:format>image/svg+xml</dc:format>
        <dc:type
           rdf:resource="http://purl.org/dc/dcmitype/StillImage" />
        <dc:title />
      </cc:Work>
    </rdf:RDF>
  </metadata>
  <g
     inkscape:label="Layer 1"
     inkscape:groupmode="layer"
     id="layer1"
     transform="translate(825.44936,-34.852689)">
    <g
       id="g878"
       transform="matrix(0.984085,0,0,0.984085,260.72698,21.666039)">
      <path
         id="path849"
         style="fill:#976cf8;stroke-width:2.38125"
         d="m -1018.7934,143.13186 c -33.8977,10.52275 -69.9076,-8.42639 -80.4303,-42.32409 -10.5228,-33.897778 8.4372,-69.872729 42.3241,-80.430435 38.4657,-11.9847676 115.08281,34.643538 80.43035,42.324175 -119.52655,26.492847 -8.42642,69.9076 -42.32415,80.43035 z"
         sodipodi:nodetypes="sssss" />
      <circle
         style="fill:#ffcc00;fill-opacity:1;stroke:none;stroke-width:4.68672;stroke-miterlimit:4;stroke-dasharray:none;stroke-opacity:1"
         id="path9455-5"
         cx="-259.57928"
         cy="1015.1314"
         r="23.0291"
         transform="rotate(72.754268)" />
      <circle
         style="fill:#ff8080;fill-opacity:1;stroke:none;stroke-width:2.19678;stroke-miterlimit:4;stroke-dasharray:none;stroke-opacity:1"
         id="path9455-5-3"
         cx="-257.79538"
         cy="1011.0946"
         r="10.794338"
         transform="rotate(72.754268)" />
    </g>
    <path
       id="path850"
       style="fill:#d45500;stroke-width:1.56483"
       d="m -692.12253,114.51717 c 0,14.92933 -12.10261,27.03194 -27.03195,27.03193 -14.92932,-3e-5 -27.03187,-12.10263 -27.03187,-27.03193 0,-14.929301 11.04138,-5.31439 25.97065,-5.31441 14.92933,-2e-5 28.09317,-9.614917 28.09317,5.31441 z"
       sodipodi:nodetypes="sssss" />
  </g>
</svg>
