<?xml version="1.0" encoding="UTF-8" standalone="no"?>
<svg
   xmlns:dc="http://purl.org/dc/elements/1.1/"
   xmlns:cc="http://creativecommons.org/ns#"
   xmlns:rdf="http://www.w3.org/1999/02/22-rdf-syntax-ns#"
   xmlns:svg="http://www.w3.org/2000/svg"
   xmlns="http://www.w3.org/2000/svg"
   xmlns:sodipodi="http://sodipodi.sourceforge.net/DTD/sodipodi-0.dtd"
   xmlns:inkscape="http://www.inkscape.org/namespaces/inkscape"
   width="512"
   height="512"
   viewBox="0 0 135.46667 135.46667"
   version="1.1"
   id="svg8"
   inkscape:export-filename="/home/dmpop/favicon.png"
   inkscape:export-xdpi="96.000008"
   inkscape:export-ydpi="96.000008"
   inkscape:version="1.0.1 (3bc2e813f5, 2020-09-07)"
   sodipodi:docname="favicon.svg">
  <defs
     id="defs2">
    <inkscape:perspective
       sodipodi:type="inkscape:persp3d"
       inkscape:vp_x="0 : 35.60699 : 1"
       inkscape:vp_y="0 : 1000.0001 : 0"
       inkscape:vp_z="103.56549 : -78.541824 : 1"
       inkscape:persp3d-origin="65.011904 : 13.936354 : 1"
       id="perspective9439" />
    <symbol
       id="Coffeeshop_Inv">
      <title
         id="title1729">Coffeeshop</title>
      <rect
         x="0.13229166"
         y="0.13229166"
         width="18.785418"
         height="18.785418"
         ry="1.5875"
         style="stroke:#ffffff;stroke-width:0.264583"
         id="rect1731" />
      <g
         style="fill:#ffffff;fill-rule:evenodd;stroke:none"
         id="g1737">
        <path
           style="stroke-width:0.264583"
           inkscape:connector-curvature="0"
           d="m 5.2916667,11.90625 a 1.3229167,1.3229167 0 0 0 1.3229166,1.322917 h 5.8208337 a 1.3229167,1.3229167 0 0 0 1.322916,-1.322917 v -0.264583 h 0.264584 a 2.6458335,2.6458335 0 0 0 0,-5.291667 H 5.2916667 Z M 13.758333,7.4083333 v 3.1749997 h 0.264584 a 1.5875,1.5875 0 0 0 0,-3.1749997 z"
           id="path1733" />
        <path
           style="stroke-width:0.264583"
           inkscape:connector-curvature="0"
           d="m 2.1166667,13.758333 a 1.5875,1.5875 0 0 0 1.5875,1.5875 H 15.345833 a 1.5875,1.5875 0 0 0 1.5875,-1.5875 z"
           id="path1735" />
      </g>
    </symbol>
    <symbol
       id="Coffeeshop">
      <title
         id="title1720">Coffeeshop</title>
      <g
         style="fill-rule:evenodd;stroke:none"
         id="g1726">
        <path
           style="stroke-width:0.264583"
           inkscape:connector-curvature="0"
           d="m 5.2916667,11.90625 a 1.3229167,1.3229167 0 0 0 1.3229166,1.322917 h 5.8208337 a 1.3229167,1.3229167 0 0 0 1.322916,-1.322917 v -0.264583 h 0.264584 a 2.6458335,2.6458335 0 0 0 0,-5.291667 H 5.2916667 Z M 13.758333,7.4083333 v 3.1749997 h 0.264584 a 1.5875,1.5875 0 0 0 0,-3.1749997 z"
           id="path1722" />
        <path
           style="stroke-width:0.264583"
           inkscape:connector-curvature="0"
           d="m 2.1166667,13.758333 a 1.5875,1.5875 0 0 0 1.5875,1.5875 H 15.345833 a 1.5875,1.5875 0 0 0 1.5875,-1.5875 z"
           id="path1724" />
      </g>
    </symbol>
  </defs>
  <sodipodi:namedview
     id="base"
     pagecolor="#ffffff"
     bordercolor="#666666"
     borderopacity="1.0"
     inkscape:pageopacity="0.0"
     inkscape:pageshadow="2"
     inkscape:zoom="0.46507463"
     inkscape:cx="256"
     inkscape:cy="68.209528"
     inkscape:document-units="mm"
     inkscape:current-layer="layer1"
     showgrid="false"
     fit-margin-top="0"
     fit-margin-left="0"
     fit-margin-right="0"
     fit-margin-bottom="0"
     inkscape:window-width="1920"
     inkscape:window-height="1020"
     inkscape:window-x="1920"
     inkscape:window-y="0"
     inkscape:window-maximized="1"
     inkscape:document-rotation="0"
     units="px"
     showguides="false" />
  <metadata
     id="metadata5">
    <rdf:RDF>
      <cc:Work
         rdf:about="">
        <dc:format>image/svg+xml</dc:format>
        <dc:type
           rdf:resource="http://purl.org/dc/dcmitype/StillImage" />
        <dc:title />
      </cc:Work>
    </rdf:RDF>
  </metadata>
  <g
     inkscape:label="Layer 1"
     inkscape:groupmode="layer"
     id="layer1"
     transform="translate(825.44936,-34.852689)">
    <path
       id="path847"
       style="fill:#800066;stroke:none;stroke-width:7.61666"
       d="m -691.57019,103.35698 c 0,36.49553 -28.51786,63.57237 -65.01339,63.57239 -36.49554,-2e-5 -69.61577,-27.16035 -67.14863,-63.57239 3.48894,-51.492446 34.56945,-65.114301 71.06498,-65.114304 36.49554,3e-6 61.09704,28.618765 61.09704,65.114304 z"
       sodipodi:nodetypes="sssss" />
    <g
       id="g900"
       transform="translate(-0.1805607,-0.56255076)">
      <path
         id="path868"
         style="fill:#ffaaee;fill-opacity:1;stroke:none;stroke-width:4.16166;stroke-miterlimit:4;stroke-dasharray:none;stroke-opacity:1"
         d="m -706.84149,106.07868 c 0,26.65943 -22.95339,41.70173 -49.61283,41.70175 -26.65946,-2e-5 -46.92958,-15.04232 -46.92958,-41.70175 0,-26.659427 13.98295,-44.704797 40.6424,-44.704804 26.65944,7e-6 55.90001,18.045377 55.90001,44.704804 z"
         sodipodi:nodetypes="sssss" />
      <path
         id="path868-3"
         style="fill:#e580ff;fill-opacity:1;stroke:none;stroke-width:4.16166;stroke-miterlimit:4;stroke-dasharray:none;stroke-opacity:1"
         d="m -803.36428,107.13702 c 0.38167,26.18542 20.51542,40.94424 46.92065,40.94427 26.40521,-3e-5 49.17027,-14.75885 49.60214,-40.94427 0,0 -27.08928,-16.487762 -50.16397,0 -23.0747,16.48776 -46.35882,0 -46.35882,0 z"
         sodipodi:nodetypes="ccczc" />
    </g>
  </g>
</svg>
